<svg width="125" height="160" viewBox="0 0 125 160" fill="none" xmlns="http://www.w3.org/2000/svg">
<path d="M72.2637 6.43262L77.1983 6.44727L77.1973 8.84961L79.6729 8.85547C79.6206 9.52002 79.6502 10.655 79.6494 11.3438L82.167 11.3525C82.1748 10.4991 82.1832 9.70759 82.1426 8.85547L92.1192 8.85742L92.1075 11.3555L97.045 11.3594L97.0381 13.8564C97.8668 13.8518 98.7077 13.8641 99.5371 13.8691L99.5352 16.3516L101.982 16.3564L101.98 18.8574L104.465 18.8652L104.464 23.8359L106.937 23.8477L106.927 28.7969C107.747 28.7919 108.568 28.8009 109.388 28.8242L109.387 36.3018C110.195 36.2838 111.058 36.3012 111.871 36.3047L111.868 43.8438L114.336 43.8457L114.33 48.8164L116.81 48.8242L116.804 56.2803L119.3 56.2822L119.303 61.2764L121.748 61.2783L121.759 71.2158H116.814V61.2148L114.369 61.2051L114.373 56.2539L111.879 56.252C111.909 53.7835 111.883 51.2466 111.885 48.7734L109.4 48.7617L109.405 41.2656L106.955 41.2578L106.958 33.7617L104.48 33.752L104.486 28.7715L102.018 28.7666L102.022 26.2832L99.5508 26.2764L99.545 23.8291L102.017 23.8438C102.006 23.0035 102.016 22.1446 102.017 21.3027C101.218 21.2798 100.352 21.2923 99.5469 21.2891L99.5479 18.8242C98.7332 18.8088 97.9 18.8136 97.083 18.8105L97.0742 16.332L94.5957 16.3164L94.5967 13.8135C92.983 13.7747 91.2573 13.8047 89.6358 13.8047L89.6426 11.3018L84.7002 11.3096L84.7032 13.8105L82.1944 13.8076L82.1924 16.3164L79.7051 16.3115V13.8184L77.2334 13.8037V11.3018C75.5728 11.2893 73.9117 11.2878 72.251 11.2969L72.2627 13.8643L74.7051 13.8779L74.7032 16.3584L77.1973 16.3623L77.1934 18.8584L79.6573 18.8633V28.7715H77.2383L77.2276 21.3037C76.4375 21.2782 75.566 21.2912 74.7696 21.2871L74.7627 18.8232L72.2871 18.8018L72.2862 16.3252L69.836 16.3086L69.834 13.8193L67.3496 13.8047L67.3506 8.81836L57.3633 8.82031L57.3662 11.2969L47.4483 11.2891L47.4541 13.8223C45.8492 13.7752 44.0749 13.8101 42.4571 13.8086C42.4706 14.6469 42.4743 15.4858 42.4688 16.3242C40.8436 16.3006 39.1574 16.3256 37.5274 16.3271L37.5313 18.8135C35.9055 18.7913 34.2356 18.8116 32.6065 18.8135L32.6094 21.293L30.1192 21.2969V23.7812L27.6309 23.7832C27.6271 25.3523 27.5766 27.2376 27.6602 28.7773C26.8303 28.7709 25.9998 28.7703 25.17 28.7734L25.168 31.2666L22.7295 31.2656L22.7305 33.7656C21.9044 33.7598 21.078 33.7595 20.252 33.7637L20.253 41.2578L17.7871 41.2676L17.7832 43.7773L15.3496 43.7764L15.3457 48.7695L12.8965 48.7744L12.8916 56.2578L10.4053 56.2588L10.4024 66.2686L12.8828 66.2695L12.8848 71.2158H10.4043V71.1953L7.97366 71.1914L7.97073 51.3311L10.4082 51.332L10.4073 43.8369L12.8809 43.8398L12.8907 38.7988L15.3535 38.8057L15.3438 36.3008L17.8242 36.2998L17.8252 31.3027L20.2715 31.3037C20.2842 29.6495 20.2831 27.9949 20.2666 26.3408L22.7491 26.3438L22.75 23.8457H25.2227L25.2129 21.3545L27.6778 21.3525L27.67 18.8643L30.168 18.8623L30.166 16.3643L32.6416 16.3613L32.6348 13.8711L37.5684 13.8818L37.5664 11.3516L42.5049 11.3545L42.501 8.85254L47.4873 8.85938L47.4903 6.44141L54.9297 6.44922L54.9239 4H72.2637V6.43262Z" fill="#F4805D"></path>
<path fill-rule="evenodd" clip-rule="evenodd" d="M77.1992 31.3076L77.1963 33.793L79.6934 33.7949L79.6875 31.3008L87.1309 31.3203L87.1348 33.79C87.9572 33.7775 88.8178 33.7947 89.6426 33.7988C89.6325 34.6228 89.6424 35.4662 89.6416 36.292L92.1153 36.2979L92.1162 38.792L94.5576 38.7969L94.5547 46.3086L97.0469 46.3213L97.0518 58.7607L99.5362 58.7637L99.5381 71.2158H89.6592C89.6594 71.2093 89.659 71.2028 89.6592 71.1963L74.752 71.1992V71.2158H69.8047V68.7539L72.2793 68.7461L72.2813 66.2686L89.6348 66.2705L89.6338 68.7422C91.2865 68.7555 92.9392 68.7545 94.5918 68.7402L94.583 66.2207L92.1358 66.207L92.1416 63.7354L72.2735 63.7412V66.2246L69.7871 66.2285L69.7881 68.7031L67.3028 68.6953V71.2158H54.9278V71.1943L40.0205 71.1924V71.2158H30.1651L30.1621 58.7686L32.6426 58.7676C32.6512 56.2892 32.6468 53.8103 32.6299 51.332L35.0938 51.3369L35.0918 46.3174L37.5616 46.3203L37.5371 41.3037L40.0244 41.3047L40.0176 38.7939L42.5098 38.7949L42.5078 36.2949L44.9629 36.2969L44.9492 33.7969L57.3623 33.7949L57.3682 36.2891L64.8594 36.3008L64.8575 33.7969L72.2725 33.79L72.2754 31.2979L77.1992 31.3076ZM44.2998 63.7383C42.0959 63.7379 39.7264 63.6894 37.5381 63.7432L37.5498 66.2197C36.7371 66.2219 35.9055 66.2141 35.0948 66.2266L35.0879 68.7471C36.7211 68.7493 38.4086 68.7716 40.0371 68.7412L40.0284 66.2715L57.3848 66.2695L57.376 63.7402L44.2998 63.7383Z" fill="#F4805D"></path>
<path d="M111.869 68.751L111.87 71.2158H109.409C109.409 71.2113 109.409 71.2067 109.409 71.2021L106.966 71.1914V68.7393L111.869 68.751Z" fill="#F4805D"></path>
<path d="M22.7364 66.2139L20.294 66.2168L20.2979 63.7686L22.7334 63.7598L22.7364 66.2139Z" fill="#F4805D"></path>
<path d="M104.459 56.2842V58.7539L106.942 58.7578L106.939 61.2783L109.387 61.2803L109.388 63.7588L111.868 63.7627C111.881 64.5781 111.876 65.3937 111.854 66.209L106.964 66.2148L106.963 63.7344L104.493 63.7236C104.515 62.9104 104.5 62.0414 104.499 61.2236L102.027 61.2207L102.035 56.2822L104.459 56.2842Z" fill="#F4805D"></path>
<path d="M17.7823 63.7227C16.9796 63.7096 16.1598 63.7157 15.3555 63.7129L15.3701 61.2773L17.7852 61.2725C17.7892 62.0892 17.7878 62.9059 17.7823 63.7227Z" fill="#F4805D"></path>
<path d="M25.1787 63.7129L22.752 63.7051L22.753 61.2695L25.1778 61.2686L25.1787 63.7129Z" fill="#F4805D"></path>
<path d="M27.6367 61.0811L27.5332 61.1885C27.0756 61.257 25.7613 61.2193 25.2295 61.2148C25.2353 59.5742 25.2329 57.9336 25.2207 56.293L27.6133 56.2871L27.6367 61.0811Z" fill="#F4805D"></path>
<path d="M106.954 56.2646C107.765 56.2838 108.575 56.2913 109.386 56.2881L109.39 58.7012L106.963 58.7109C106.963 57.9526 106.988 57.0077 106.954 56.2646Z" fill="#F4805D"></path>
<path d="M27.6094 46.3125L27.6367 51.2676H25.1729L25.1709 53.7666L22.7491 53.7627L22.7432 56.2559L20.2617 56.2578C20.2637 56.6626 20.3235 58.4859 20.1602 58.7041L17.8282 58.7021C17.8476 57.0793 17.8317 55.427 17.8311 53.8018L20.294 53.8076C20.3104 52.9996 20.2926 52.1357 20.2901 51.3232L22.7539 51.3301L22.7549 48.8213C23.574 48.824 24.393 48.8217 25.2119 48.8145C25.2093 48.2861 25.1624 46.7202 25.2393 46.3096L27.6094 46.3125Z" fill="#F4805D"></path>
<path d="M104.475 46.2793C105.289 46.2873 106.133 46.2832 106.943 46.3047C106.943 49.3998 106.828 53.242 106.954 56.2646C106.342 56.2172 105.146 56.2532 104.49 56.2529C104.548 53.0938 104.529 49.4399 104.475 46.2793Z" fill="#F4805D"></path>
<path d="M20.2735 46.2842C20.2092 47.8535 20.2512 49.6736 20.253 51.2617L17.795 51.2695L17.791 53.7637L15.3672 53.7627C15.3964 52.1357 15.3748 50.4489 15.3741 48.8174L17.833 48.8262L17.8291 46.3193C18.644 46.3203 19.459 46.3084 20.2735 46.2842Z" fill="#F4805D"></path>
<path d="M22.7403 46.2715C22.0472 46.271 20.9325 46.2368 20.2735 46.2842C20.3345 44.6808 20.3018 42.8997 20.3018 41.2822C21.1165 41.2866 21.9315 41.2836 22.7461 41.2734L22.7403 46.2715Z" fill="#F4805D"></path>
<path d="M104.461 38.7891C104.461 41.1853 104.402 43.9099 104.475 46.2793L102.019 46.2695L102.025 38.7842L104.461 38.7891Z" fill="#F4805D"></path>
<path d="M32.5967 46.2686L30.169 46.2666L30.168 38.7891L32.6055 38.7803L32.5967 46.2686Z" fill="#F4805D"></path>
<path d="M25.1768 41.2695C24.4141 41.2678 23.4961 41.2424 22.7461 41.2734L22.751 38.7891L25.1748 38.7871L25.1768 41.2695Z" fill="#F4805D"></path>
<path d="M35.0967 38.7686L32.6553 38.7637L32.6397 36.2988C33.46 36.3069 34.2806 36.2987 35.1006 36.2744L35.0967 38.7686Z" fill="#F4805D"></path>
<path d="M99.5284 28.8076L99.5254 31.3018L101.986 31.3086L101.988 38.7607L99.5381 38.7539L99.543 33.7666L97.0537 33.7539C97.0522 32.1523 97.0901 30.3678 97.044 28.7822L99.5284 28.8076Z" fill="#F4805D"></path>
<path d="M27.6446 38.7588L25.2159 38.7568L25.2198 33.8018L27.6426 33.7832L27.6446 38.7588Z" fill="#F4805D"></path>
<path d="M54.8799 18.876L54.8887 21.3438L59.8379 21.3525C59.8398 22.1567 59.8305 22.9843 59.8448 23.7861L52.3828 23.7793L52.3946 26.2812L44.9473 26.2773L44.9512 28.7695L42.4795 28.7705C42.4869 29.5891 42.5066 30.4487 42.4922 31.2637L40.0157 31.2686L40.0205 33.7578L37.5459 33.7607C37.5669 34.5945 37.5722 35.4288 37.5616 36.2627C36.7994 36.2591 35.8459 36.2315 35.1006 36.2744L35.0918 31.3125L37.5684 31.2998L37.5586 28.8057L40.0215 28.7939L40.0205 26.3408L42.5069 26.3359L42.5 21.3496L47.4698 21.3535L47.459 18.8682C49.8906 18.8693 52.4588 18.8325 54.8799 18.876Z" fill="#F4805D"></path>
<path d="M42.4532 18.8604C42.4597 19.6551 42.4806 20.5038 42.4629 21.2939C41.8755 21.2886 40.644 21.2498 40.1192 21.3174C40.0913 21.3516 40.0254 21.4237 40.0127 21.459L40.0157 23.7783L37.5371 23.7861L37.5518 26.2764L35.0938 26.2783L35.0889 28.7695H32.6035L32.6084 31.2646L30.1289 31.2666L30.1338 33.7627C29.3194 33.7596 28.4952 33.7501 27.6817 33.7568C27.6837 32.1585 27.7226 30.3588 27.6602 28.7773C28.496 28.7915 29.332 28.798 30.168 28.7969L30.166 26.3438L32.6524 26.3408L32.6387 23.8486L35.0938 23.8467L35.0889 21.3574L37.5752 21.3535L37.5713 18.8662L42.4532 18.8604Z" fill="#F4805D"></path>
<path d="M67.3028 26.3379L67.3096 31.2666L64.8614 31.2656L64.8584 26.3311L67.3028 26.3379Z" fill="#F4805D"></path>
<path d="M62.3106 28.79L62.3252 31.2637L59.8594 31.2607L59.8496 28.7861L62.3106 28.79Z" fill="#F4805D"></path>
<path d="M59.8369 26.3359C59.8358 27.0888 59.809 28.051 59.8496 28.7861C57.4026 28.7365 54.8775 28.768 52.4248 28.7695L52.4258 26.335L59.8369 26.3359Z" fill="#F4805D"></path>
<path d="M94.5518 23.8428L94.5479 26.333L97.0469 26.335L97.044 28.7822C95.4091 28.7623 93.7735 28.7571 92.1387 28.7666L92.1397 26.2871L87.1748 26.2803C87.1709 25.4715 87.1778 24.6405 87.1621 23.834L94.5518 23.8428Z" fill="#F4805D"></path>
<path d="M87.1446 28.7715H84.6885C84.6971 27.9642 84.6883 27.1434 84.6875 26.335L87.1485 26.333L87.1446 28.7715Z" fill="#F4805D"></path>
<path d="M47.4698 13.8691C53.2088 13.948 59.0746 13.8723 64.8262 13.874C64.8136 14.6991 64.8165 15.5247 64.835 16.3496L67.3047 16.3555C67.2903 17.1715 67.3141 18.0346 67.3252 18.8545L69.7813 18.8662L69.7823 21.3457L72.2559 21.3555C72.2406 22.1728 72.2573 23.0207 72.2637 23.8408L74.7002 23.8457L74.7012 28.7686L72.2793 28.7695L72.2823 26.2891L69.8233 26.2803L69.8311 23.791L67.3506 23.7793V21.293L62.3575 21.2832L62.3594 18.8232C60.7179 18.7932 59.0309 18.8054 57.3858 18.7988L57.3887 16.3291L47.4649 16.3262C47.4963 15.5098 47.4782 14.6864 47.4698 13.8691Z" fill="#F4805D"></path>
<path d="M64.8106 23.8447C64.802 24.6439 64.8231 25.4782 64.8321 26.2803L59.8584 26.2783V23.8438L64.8106 23.8447Z" fill="#F4805D"></path>
<path d="M94.5596 16.3623C94.544 17.1863 94.5498 18.0332 94.5459 18.8594L97.0479 18.8613L97.043 21.3018C94.5661 21.2813 92.088 21.2789 89.6104 21.2939L87.1475 21.291L87.1397 23.7861L82.1992 23.7773V21.3496H84.6807C84.6955 20.5295 84.6846 19.6837 84.6846 18.8613L87.1494 18.8711C87.1674 18.0558 87.1492 17.1906 87.1446 16.3711L94.5596 16.3623Z" fill="#F4805D"></path>
<path d="M99.5235 23.7822L97.0703 23.7744C97.0563 22.9739 97.0625 22.1539 97.0586 21.3516L99.5313 21.3467L99.5235 23.7822Z" fill="#F4805D"></path>
<path d="M47.4424 16.3604C47.4498 17.18 47.4516 17.9998 47.4483 18.8193C45.913 18.7572 44.0671 18.809 42.5088 18.8135L42.5078 16.3652L47.4424 16.3604Z" fill="#F4805D"></path>
</svg>