<svg width="125" height="160" viewBox="0 0 125 160" fill="none" xmlns="http://www.w3.org/2000/svg">
<path d="M72.2637 6.43262L77.1982 6.44727L77.1973 8.84961L79.6729 8.85547C79.6206 9.52002 79.6502 10.655 79.6494 11.3438L82.167 11.3525C82.1748 10.4991 82.1832 9.70759 82.1426 8.85547L92.1191 8.85742L92.1074 11.3555L97.0449 11.3594L97.0381 13.8564C97.8667 13.8518 98.7077 13.8641 99.5371 13.8691L99.5352 16.3516L101.982 16.3564L101.979 18.8574L104.465 18.8652L104.464 23.7783H102.017C102.007 22.959 102.016 22.1228 102.017 21.3027C101.217 21.2798 100.352 21.2923 99.5469 21.2891L99.5479 18.8242C98.7332 18.8088 97.9 18.8136 97.083 18.8105L97.0742 16.332L94.5957 16.3164L94.5967 13.8135C92.983 13.7747 91.2573 13.8047 89.6357 13.8047L89.6426 11.3018L84.7002 11.3096L84.7031 13.8105L82.1943 13.8076L82.1924 16.3164L79.7051 16.3115V13.8184L77.2334 13.8037V11.3018C75.5727 11.2893 73.9117 11.2878 72.251 11.2969L72.2627 13.8643L74.7051 13.8779L74.7031 16.3584L77.1973 16.3623L77.1934 18.8584L79.6572 18.8633V23.7783H77.2314L77.2275 21.3037C76.4375 21.2782 75.566 21.2912 74.7695 21.2871L74.7627 18.8232L72.2871 18.8018L72.2861 16.3252L69.8359 16.3086L69.834 13.8193L67.3496 13.8047L67.3506 8.81836L57.3633 8.82031L57.3662 11.2969L47.4482 11.2891L47.4541 13.8223C45.8492 13.7752 44.0749 13.8101 42.457 13.8086C42.4705 14.6469 42.4743 15.4858 42.4688 16.3242C40.8435 16.3006 39.1574 16.3256 37.5273 16.3271L37.5312 18.8135C35.9054 18.7913 34.2356 18.8116 32.6064 18.8135L32.6094 21.293L30.1191 21.2969V23.7783H25.2227L25.2129 21.3545L27.6777 21.3525L27.6699 18.8643L30.168 18.8623L30.166 16.3643L32.6416 16.3613L32.6348 13.8711L37.5684 13.8818L37.5664 11.3516L42.5049 11.3545L42.501 8.85254L47.4873 8.85938L47.4902 6.44141L54.9297 6.44922L54.9238 4H72.2637V6.43262Z" fill="#F4805D"></path>
<path d="M42.4531 18.8604C42.4597 19.6551 42.4805 20.5038 42.4629 21.2939C41.8755 21.2886 40.6439 21.2498 40.1191 21.3174C40.0913 21.3516 40.0254 21.4237 40.0127 21.459L40.0156 23.7783H35.0938L35.0889 21.3574L37.5752 21.3535L37.5713 18.8662L42.4531 18.8604Z" fill="#F4805D"></path>
<path d="M54.8799 18.876L54.8887 21.3438L59.8379 21.3525C59.8398 22.1541 59.8307 22.9789 59.8447 23.7783H42.5029L42.5 21.3496L47.4697 21.3535L47.459 18.8682C49.8905 18.8693 52.4587 18.8325 54.8799 18.876Z" fill="#F4805D"></path>
<path d="M47.4697 13.8691C53.2088 13.948 59.0746 13.8723 64.8262 13.874C64.8135 14.6991 64.8164 15.5247 64.835 16.3496L67.3047 16.3555C67.2903 17.1715 67.3141 18.0346 67.3252 18.8545L69.7812 18.8662L69.7822 21.3457L72.2559 21.3555C72.2409 22.1521 72.256 22.9776 72.2627 23.7783H67.3506V21.293L62.3574 21.2832L62.3594 18.8232C60.7179 18.7932 59.0308 18.8054 57.3857 18.7988L57.3887 16.3291L47.4648 16.3262C47.4963 15.5098 47.4782 14.6864 47.4697 13.8691Z" fill="#F4805D"></path>
<path d="M94.5596 16.3623C94.544 17.1863 94.5498 18.0332 94.5459 18.8594L97.0479 18.8613L97.043 21.3018C94.5661 21.2813 92.088 21.2789 89.6104 21.2939L87.1475 21.291L87.1396 23.7783H82.748L82.1992 23.7773V21.3496H84.6807C84.6955 20.5295 84.6846 19.6837 84.6846 18.8613L87.1494 18.8711C87.1674 18.0558 87.1492 17.1906 87.1445 16.3711L94.5596 16.3623Z" fill="#F4805D"></path>
<path d="M99.5234 23.7783H98.2969L97.0703 23.7744C97.0563 22.9739 97.0625 22.1539 97.0586 21.3516L99.5312 21.3467L99.5234 23.7783Z" fill="#F4805D"></path>
<path d="M47.4424 16.3604C47.4497 17.18 47.4515 17.9998 47.4482 18.8193C45.9129 18.7572 44.067 18.809 42.5088 18.8135L42.5078 16.3652L47.4424 16.3604Z" fill="#F4805D"></path>
</svg>