<svg width="125" height="160" viewBox="0 0 125 160" fill="none" xmlns="http://www.w3.org/2000/svg">
<path d="M32.5986 138.581H27.6885L27.6855 136.109H32.6025L32.5986 138.581Z" fill="#F4805D"></path>
<path d="M37.5742 126.107L37.5732 128.605L40.0312 128.609V131.076L42.499 131.086L42.498 133.602L44.9619 133.605L44.959 136.11H47.4521L47.4492 138.581H35.0693C35.069 134.412 35.0953 130.223 35.0947 126.104L37.5742 126.107Z" fill="#F4805D"></path>
<path d="M92.1328 128.61L92.1338 138.581H82.1953L82.1973 136.106L84.6992 136.108L84.6963 133.595L87.2021 133.6L87.2012 131.085L89.6611 131.089L89.6572 128.605L92.1328 128.61Z" fill="#F4805D"></path>
<path d="M99.5098 136.111L99.5146 138.581H94.6035V136.107L99.5098 136.111Z" fill="#F4805D"></path>
<path d="M77.2021 138.548C75.5752 138.571 73.9056 138.552 72.2754 138.551V136.111H77.208L77.2021 138.548Z" fill="#F4805D"></path>
<path d="M69.7783 136.111L69.7744 138.546C68.1571 138.573 66.4758 138.549 64.8535 138.549L64.8428 136.109L69.7783 136.111Z" fill="#F4805D"></path>
<path d="M62.3564 136.111L62.3545 138.549L57.4297 138.548L57.4229 136.105L62.3564 136.111Z" fill="#F4805D"></path>
<path d="M72.2695 131.066C73.0862 131.087 73.9299 131.081 74.749 131.086L74.7412 133.545C72.7247 133.662 69.4773 133.559 67.3398 133.555L67.3232 131.054L64.8486 131.048L64.8496 128.604L72.2754 128.602L72.2695 131.066Z" fill="#F4805D"></path>
<path fill-rule="evenodd" clip-rule="evenodd" d="M72.2637 6.43262L77.1982 6.44727L77.1973 8.84961L79.6729 8.85547C79.6206 9.52002 79.6502 10.655 79.6494 11.3438L82.167 11.3525C82.1748 10.4991 82.1832 9.70759 82.1426 8.85547L92.1191 8.85742L92.1074 11.3555L97.0449 11.3594L97.0381 13.8564C97.8667 13.8518 98.7077 13.8641 99.5371 13.8691L99.5352 16.3516L101.982 16.3564L101.979 18.8574L104.465 18.8652L104.464 23.8359L106.937 23.8477L106.927 28.7969C107.747 28.7919 108.568 28.8009 109.388 28.8242L109.387 36.3018C110.195 36.2838 111.058 36.3012 111.871 36.3047L111.868 43.8438L114.336 43.8457L114.33 48.8164L116.81 48.8242L116.804 56.2803L119.3 56.2822L119.303 61.2764L121.748 61.2783L121.767 78.6885L119.299 78.6787V86.0967L116.806 86.0947L116.807 91.0977L114.338 91.0947C114.316 92.7446 114.341 94.455 114.344 96.1104L116.807 96.1094L116.812 101.057L119.299 101.06C119.244 101.63 119.286 102.932 119.29 103.558C120.091 103.541 120.933 103.557 121.738 103.561L121.734 108.538L119.288 108.537L119.295 111.047L116.8 111.048L116.799 118.557L111.865 118.566V121.089L116.792 121.097L116.796 123.552L111.869 123.555V126.102L114.325 126.105L114.328 128.548L109.404 128.559L109.405 131.08L111.845 131.094L111.854 133.556C106.972 133.615 101.946 133.563 97.0586 133.554L97.0547 126.106L99.5078 126.109L99.5088 128.598L101.99 128.604L101.987 131.078C102.82 131.09 103.653 131.087 104.485 131.069L104.478 128.559L102.032 128.551L102.025 126.102L106.971 126.105L106.963 123.559L104.48 123.549L104.482 121.052L102.027 121.047L102.028 111.075L104.45 111.086L104.458 116.078L106.933 116.08L106.939 118.582C107.77 118.592 108.617 118.583 109.449 118.582L109.438 116.079L111.892 116.078L111.889 111.085L114.366 111.072L114.354 106.053L116.812 106.055L116.807 103.535L114.359 103.534V98.5908L111.881 98.5781L111.883 88.6133L114.366 88.6172L114.364 83.6299L116.813 83.6328L116.814 61.2148L114.369 61.2051L114.373 56.2539L111.879 56.252C111.909 53.7835 111.883 51.2466 111.885 48.7734L109.4 48.7617L109.405 41.2656L106.955 41.2578L106.958 33.7617L104.48 33.752L104.486 28.7715L102.018 28.7666L102.022 26.2832L99.5508 26.2764L99.5449 23.8291L102.017 23.8438C102.006 23.0035 102.016 22.1446 102.017 21.3027C101.217 21.2798 100.352 21.2923 99.5469 21.2891L99.5479 18.8242C98.7332 18.8088 97.9 18.8136 97.083 18.8105L97.0742 16.332L94.5957 16.3164L94.5967 13.8135C92.983 13.7747 91.2573 13.8047 89.6357 13.8047L89.6426 11.3018L84.7002 11.3096L84.7031 13.8105L82.1943 13.8076L82.1924 16.3164L79.7051 16.3115V13.8184L77.2334 13.8037V11.3018C75.5727 11.2893 73.9117 11.2878 72.251 11.2969L72.2627 13.8643L74.7051 13.8779L74.7031 16.3584L77.1973 16.3623L77.1934 18.8584L79.6572 18.8633V28.7715H77.2383L77.2275 21.3037C76.4375 21.2782 75.566 21.2912 74.7695 21.2871L74.7627 18.8232L72.2871 18.8018L72.2861 16.3252L69.8359 16.3086L69.834 13.8193L67.3496 13.8047L67.3506 8.81836L57.3633 8.82031L57.3662 11.2969L47.4482 11.2891L47.4541 13.8223C45.8492 13.7752 44.0749 13.8101 42.457 13.8086C42.4705 14.6469 42.4743 15.4858 42.4688 16.3242C40.8435 16.3006 39.1574 16.3256 37.5273 16.3271L37.5312 18.8135C35.9054 18.7913 34.2356 18.8116 32.6064 18.8135L32.6094 21.293L30.1191 21.2969V23.7812L27.6309 23.7832C27.6271 25.3523 27.5766 27.2376 27.6602 28.7773C26.8302 28.7709 25.9998 28.7703 25.1699 28.7734L25.168 31.2666L22.7295 31.2656L22.7305 33.7656C21.9044 33.7598 21.0779 33.7595 20.252 33.7637L20.2529 41.2578L17.7871 41.2676L17.7832 43.7773L15.3496 43.7764L15.3457 48.7695L12.8965 48.7744L12.8916 56.2578L10.4053 56.2588L10.4023 66.2686L12.8828 66.2695L12.8867 76.2539L15.3418 76.2637V81.1084L17.8164 81.1035C17.7372 83.2035 17.7889 85.5788 17.791 87.6904L17.8105 98.582L15.3594 98.5977C15.355 99.4101 15.3624 100.253 15.3447 101.062H17.8105C17.8123 101.868 17.7955 102.748 17.8193 103.547L20.2549 103.551L20.2578 106.055L22.7471 106.053L22.7422 108.535H20.2627L20.2568 111.044L15.4062 111.043L15.4072 108.543C12.1448 108.495 8.77772 108.536 5.50684 108.533L5.51172 106.033L3 106.031L3.00195 103.554L7.97852 103.557L7.97363 106.062C9.60592 106.042 11.2685 106.056 12.9033 106.054L12.9043 103.533H10.415L10.4111 101.036L7.97949 101.034C8.00168 99.4084 7.98219 97.7361 7.98242 96.1064L10.4062 96.1094L10.4092 98.6113L12.9004 98.6094L12.8975 96.1104L15.3652 96.1094C15.4864 92.1642 15.3634 87.6053 15.3721 83.6055L12.9004 83.6064L12.9033 78.6807L10.4082 78.6826L10.4043 71.1953L7.97363 71.1914L7.9707 51.3311L10.4082 51.332L10.4072 43.8369L12.8809 43.8398L12.8906 38.7988L15.3535 38.8057L15.3438 36.3008L17.8242 36.2998L17.8252 31.3027L20.2715 31.3037C20.2842 29.6495 20.2831 27.9949 20.2666 26.3408L22.749 26.3438L22.75 23.8457H25.2227L25.2129 21.3545L27.6777 21.3525L27.6699 18.8643L30.168 18.8623L30.166 16.3643L32.6416 16.3613L32.6348 13.8711L37.5684 13.8818L37.5664 11.3516L42.5049 11.3545L42.501 8.85254L47.4873 8.85938L47.4902 6.44141L54.9297 6.44922L54.9238 4H72.2637V6.43262ZM15.3584 103.542C15.3587 104.354 15.3788 105.251 15.3564 106.057L17.8311 106.054L17.8193 103.547L15.3584 103.542Z" fill="#F4805D"></path>
<path d="M62.3574 131.053C63.2252 131.08 63.9676 131.087 64.835 131.062L64.8223 133.53C64.1361 133.597 63.0775 133.562 62.3623 133.552L62.3574 131.053Z" fill="#F4805D"></path>
<path d="M27.6553 108.562L27.6357 113.533L25.1914 113.537C25.1575 115.169 25.187 116.903 25.1875 118.543C24.3814 118.556 23.5578 118.551 22.75 118.555L22.7422 121.049L20.2793 121.051L20.2695 123.607L22.7646 123.605L22.7598 121.088L25.2451 121.09L25.2412 118.575C26.0559 118.585 26.8708 118.585 27.6855 118.577L27.6807 116.088L30.1064 116.078V123.602L32.5977 123.604L32.5947 133.558L27.6914 133.556L27.6895 131.049L22.7764 131.045L22.7646 128.604L25.2461 128.604C25.2501 127.869 25.2853 126.752 25.2217 126.053L20.2744 126.057L20.2656 128.543L17.8379 128.541L17.8398 123.553L12.9111 123.555L12.9092 121.098L17.8389 121.094L17.8369 118.588L20.3115 118.578L20.3135 116.05L7.99023 116.046L7.99219 113.538L5.50391 113.535L5.51172 111.082C8.77554 111.042 12.1085 111.076 15.3779 111.073L15.3633 113.569L20.3027 113.562L20.292 111.07L25.2441 111.071L25.249 108.559L27.6553 108.562Z" fill="#F4805D"></path>
<path d="M62.3525 128.61L62.3574 131.053H59.8545L59.8506 133.555L54.9805 133.557C54.9216 132.831 54.9464 131.833 54.9463 131.082C55.7695 131.082 56.6067 131.093 57.4277 131.051L57.4219 128.601L62.3525 128.61Z" fill="#F4805D"></path>
<path d="M49.9668 131.067C50.7534 131.096 51.6456 131.082 52.4404 131.086L52.4375 133.555H49.9707L49.9668 131.067Z" fill="#F4805D"></path>
<path d="M79.7002 133.548L77.2441 133.552L77.2412 131.097L79.6982 131.093L79.7002 133.548Z" fill="#F4805D"></path>
<path d="M84.6885 126.106L84.6807 131.036C83.8894 131.062 82.9973 131.044 82.1982 131.046V126.104L84.6885 126.106Z" fill="#F4805D"></path>
<path d="M72.2773 126.107C74.7286 126.08 77.2476 126.107 79.7031 126.107L79.6963 128.548L72.2773 128.552V126.107Z" fill="#F4805D"></path>
<path d="M47.4531 126.108L47.4551 128.547L45.0059 128.546L45 126.104L47.4531 126.108Z" fill="#F4805D"></path>
<path d="M52.4414 123.607L52.4385 126.105H54.9326L54.9336 128.547L49.9639 128.546L49.9512 123.605L52.4414 123.607Z" fill="#F4805D"></path>
<path d="M64.8311 123.603L69.7852 123.605L69.7832 126.057L59.8828 126.055L59.8662 123.605H62.3711L62.3633 121.107L64.8301 121.105L64.8311 123.603Z" fill="#F4805D"></path>
<path d="M84.6875 118.601L84.6836 123.547L82.2383 123.55L79.707 123.549L79.7051 121.096L82.2021 121.091L82.1992 118.59L84.6875 118.601Z" fill="#F4805D"></path>
<path d="M89.6299 123.546L87.2012 123.55L87.1963 121.103L89.6299 121.102V123.546Z" fill="#F4805D"></path>
<path fill-rule="evenodd" clip-rule="evenodd" d="M67.2949 106.048L74.7168 106.056C74.7805 106.779 74.7512 107.791 74.7471 108.543C76.3644 108.584 78.0832 108.56 79.7031 108.543L79.7051 106.051L82.2002 106.059L82.1982 116.051L79.7021 116.048L79.6982 118.556L77.2207 118.555L77.2227 121.051H74.7461L74.7334 123.546L72.2803 123.548L72.2793 121.055L69.8154 121.044L69.8066 118.587C70.6293 118.59 71.4528 118.586 72.2754 118.575L72.2803 116.052L57.4053 116.051L57.4004 118.578L59.8711 118.589L59.8633 121.048L57.4014 121.051L57.4033 123.548L54.9512 123.547L54.9541 121.052L52.4453 121.047L52.4434 118.56L49.9473 118.551V116.05L44.998 116.047L44.9912 113.565L47.4473 113.56L47.4443 108.553C49.1083 108.566 50.7726 108.561 52.4365 108.539L52.4395 106.051C55.7197 106.052 59.0895 106.093 62.3623 106.045L62.3574 103.551L67.293 103.548L67.2949 106.048ZM52.4287 111.075L74.752 111.066C74.7535 110.259 74.7766 109.341 74.7471 108.543L52.4365 108.539L52.4287 111.075Z" fill="#F4805D"></path>
<path d="M40.0342 121.104L40.0293 123.546L37.5879 123.547L37.5859 121.097L40.0342 121.104Z" fill="#F4805D"></path>
<path d="M37.5635 118.596C37.5265 119.349 37.5441 120.265 37.541 121.03C36.9802 121.085 35.7156 121.05 35.1025 121.051L35.0947 118.59L37.5635 118.596Z" fill="#F4805D"></path>
<path d="M47.4473 121.048L42.5098 121.049L42.5049 118.586L47.4482 118.582L47.4473 121.048Z" fill="#F4805D"></path>
<path d="M94.5684 118.553L92.1348 118.555C92.1262 116.894 92.1281 115.233 92.1406 113.572L94.5635 113.567L94.5684 118.553Z" fill="#F4805D"></path>
<path d="M89.6318 118.55L87.2021 118.548V116.09L89.6299 116.085L89.6318 118.55Z" fill="#F4805D"></path>
<path d="M106.949 108.544C107.769 108.558 108.589 108.564 109.408 108.562C109.398 111.059 109.401 113.556 109.419 116.053L106.959 116.047C106.962 113.612 107.018 110.963 106.949 108.544Z" fill="#F4805D"></path>
<path d="M37.5537 108.551C37.5509 110.196 37.5264 111.89 37.5469 113.53L35.0928 113.535L35.0859 116.043L32.6338 116.049C32.6257 114.45 32.6596 112.636 32.6016 111.055C33.4341 111.076 34.2679 111.081 35.1006 111.071L35.0957 108.552C35.915 108.559 36.7345 108.559 37.5537 108.551Z" fill="#F4805D"></path>
<path d="M97.0439 111.086L97.0449 113.535L94.6074 113.537C94.5965 112.717 94.6018 111.895 94.6221 111.075L97.0439 111.086Z" fill="#F4805D"></path>
<path fill-rule="evenodd" clip-rule="evenodd" d="M77.1992 31.3076L77.1963 33.793L79.6934 33.7949L79.6875 31.3008L87.1309 31.3203L87.1348 33.79C87.9572 33.7775 88.8178 33.7947 89.6426 33.7988C89.6324 34.6228 89.6424 35.4662 89.6416 36.292L92.1152 36.2979L92.1162 38.792L94.5576 38.7969L94.5547 46.3086L97.0469 46.3213L97.0518 58.7607L99.5361 58.7637L99.541 86.1006L97.041 86.1045L97.0508 98.6035C96.2535 98.5801 95.3649 98.5996 94.5605 98.5996L94.5615 103.535L92.1289 103.537L92.127 106.034L89.6309 106.039L89.6318 113.535H84.6895L84.6855 111.078L87.2041 111.072L87.2051 103.535L84.6943 103.531L84.6982 101.037C83.0446 101.016 81.3622 101.031 79.707 101.031L79.7051 98.5947L74.7617 98.5801L74.7588 96.0801L72.2842 96.0547L72.2764 93.5576L67.2988 93.5508L67.2891 96.0488L59.8721 96.0508L59.8682 93.5547H54.9229V96.0605L52.4189 96.0664L52.416 98.5869L47.4824 98.5977C47.4233 99.3061 47.4477 100.3 47.4482 101.032L44.9424 101.034L44.9404 103.532L42.4863 103.536V113.535H40.0371L40.0283 108.54L37.5859 108.532L37.5801 103.535C36.8108 103.536 35.8483 103.51 35.0947 103.544C35.1572 102.046 35.098 100.122 35.0957 98.5918L32.6426 98.5908L32.6289 91.0566L30.1699 91.0605L30.1621 58.7686L32.6426 58.7676C32.6512 56.2892 32.6468 53.8103 32.6299 51.332L35.0938 51.3369L35.0918 46.3174L37.5615 46.3203L37.5371 41.3037L40.0244 41.3047L40.0176 38.7939L42.5098 38.7949L42.5078 36.2949L44.9629 36.2969L44.9492 33.7969L57.3623 33.7949L57.3682 36.2891L64.8594 36.3008L64.8574 33.7969L72.2725 33.79L72.2754 31.2979L77.1992 31.3076ZM72.2734 63.7412V66.2246L69.7871 66.2285L69.7881 68.7031L67.3027 68.6953L67.3008 86.1016L69.8066 86.0967L69.8047 68.7539L72.2793 68.7461L72.2812 66.2686L89.6348 66.2705L89.6338 68.7422C91.2864 68.7555 92.9391 68.7545 94.5918 68.7402L94.583 66.2207L92.1357 66.207L92.1416 63.7354L72.2734 63.7412ZM74.752 71.1992L74.7598 73.7061L72.2725 73.7031L72.2754 76.2568L74.7676 76.2578L74.7686 73.7656L77.209 73.7627L77.2061 78.7051L84.6865 78.708V73.7637H87.1455L87.1436 76.2617L92.1465 76.2539L92.1348 73.7031L89.6543 73.6992C89.6543 72.8899 89.6357 71.9987 89.6592 71.1963L74.752 71.1992ZM40.0244 73.7021L37.5605 73.7031L37.5557 76.2549L42.5 76.2578L42.4863 73.7656L44.9385 73.7686L44.9365 78.707L52.4297 78.7061V76.3691L52.4199 73.7607L54.9033 73.7617C54.9019 74.5882 54.9052 75.4148 54.9141 76.2412L57.3838 76.2539L57.375 73.7031L54.9297 73.7021L54.9277 71.1943L40.0205 71.1924L40.0244 73.7021ZM44.2998 63.7383C42.0958 63.7379 39.7264 63.6894 37.5381 63.7432L37.5498 66.2197C36.737 66.2219 35.9055 66.2141 35.0947 66.2266L35.0879 68.7471C36.721 68.7493 38.4086 68.7716 40.0371 68.7412L40.0283 66.2715L57.3848 66.2695L57.376 63.7402L44.2998 63.7383Z" fill="#F4805D"></path>
<path d="M32.6055 106.045C32.5909 107.715 32.5895 109.385 32.6016 111.055C31.8488 111.023 30.9333 111.044 30.168 111.042L30.1641 106.055L32.6055 106.045Z" fill="#F4805D"></path>
<path d="M94.5664 111.047L92.1475 111.046L92.1465 108.567L94.5645 108.564L94.5664 111.047Z" fill="#F4805D"></path>
<path d="M106.928 106.062C106.932 106.786 106.903 107.848 106.949 108.544L104.49 108.531L104.491 106.055L106.928 106.062Z" fill="#F4805D"></path>
<path d="M111.853 103.554C111.867 105.202 111.834 106.853 111.863 108.501C111.551 108.567 109.87 108.538 109.441 108.536L109.437 103.552L111.853 103.554Z" fill="#F4805D"></path>
<path d="M97.0439 108.535H94.6133L94.6016 103.55L97.0449 103.548L97.0439 108.535Z" fill="#F4805D"></path>
<path d="M32.6016 103.54C33.4326 103.552 34.2637 103.553 35.0947 103.544C35.0852 104.374 35.0802 105.204 35.0801 106.034C34.2983 106.037 33.3749 106.015 32.6055 106.045C32.6369 105.241 32.6109 104.352 32.6016 103.54Z" fill="#F4805D"></path>
<path d="M32.6016 103.54L30.168 103.534L30.1641 98.6133L32.5967 98.6094L32.6016 103.54Z" fill="#F4805D"></path>
<path d="M22.748 101.075L22.7412 103.534L20.3008 103.532L20.291 101.063L22.748 101.075Z" fill="#F4805D"></path>
<path d="M20.2539 101.033L17.8301 101.034L17.8291 98.6113H20.2529L20.2539 101.033Z" fill="#F4805D"></path>
<path d="M99.5049 98.6133L99.5176 101.029L97.0586 101.031L97.0508 98.6035L99.5049 98.6133Z" fill="#F4805D"></path>
<path d="M111.869 68.751L111.873 81.1084L109.393 81.1055L109.399 91.0977L106.949 91.0898L106.955 96.0635L104.461 96.0547L104.458 98.5918L102.027 98.5859L102.031 83.6328L104.456 83.6367L104.458 88.6113L106.966 88.6133L106.964 81.1055H104.495L104.496 76.2314C106.129 76.2546 107.79 76.2455 109.425 76.251C109.376 74.6249 109.409 72.8401 109.409 71.2021L106.966 71.1914V68.7393L111.869 68.751Z" fill="#F4805D"></path>
<path d="M22.7383 73.7012L20.2549 73.7041L20.2529 76.2402L22.7441 76.2549L22.7354 78.7051L25.1777 78.7158L25.1816 81.1064L22.7422 81.1035L22.7402 88.6094H25.2412L25.2373 83.6377L27.6396 83.6406L27.6357 98.5898L22.7539 98.583V93.5508L20.3096 93.5479L20.3057 81.0996L17.8164 81.1035C17.8768 77.8369 17.8022 74.5275 17.8271 71.2568L22.7373 71.251L22.7383 73.7012Z" fill="#F4805D"></path>
<path d="M57.377 96.1104L57.376 98.585L54.9385 98.5879L54.9316 96.1045L57.377 96.1104Z" fill="#F4805D"></path>
<path d="M104.502 71.2285C105.302 71.2102 106.143 71.2273 106.946 71.2324C106.954 72.0547 106.949 72.8772 106.931 73.6992L104.505 73.6982C104.496 72.8797 104.503 72.0482 104.502 71.2285Z" fill="#F4805D"></path>
<path d="M22.7363 66.2139L20.2939 66.2168L20.2979 63.7686L22.7334 63.7598L22.7363 66.2139Z" fill="#F4805D"></path>
<path d="M104.459 56.2842V58.7539L106.942 58.7578L106.939 61.2783L109.387 61.2803L109.388 63.7588L111.868 63.7627C111.881 64.5781 111.876 65.3937 111.854 66.209L106.964 66.2148L106.963 63.7344L104.493 63.7236C104.515 62.9104 104.5 62.0414 104.499 61.2236L102.027 61.2207L102.035 56.2822L104.459 56.2842Z" fill="#F4805D"></path>
<path d="M17.7822 63.7227C16.9796 63.7096 16.1598 63.7157 15.3555 63.7129L15.3701 61.2773L17.7852 61.2725C17.7891 62.0892 17.7878 62.9059 17.7822 63.7227Z" fill="#F4805D"></path>
<path d="M25.1787 63.7129L22.752 63.7051L22.7529 61.2695L25.1777 61.2686L25.1787 63.7129Z" fill="#F4805D"></path>
<path d="M27.6367 61.0811L27.5332 61.1885C27.0755 61.257 25.7613 61.2193 25.2295 61.2148C25.2353 59.5742 25.2329 57.9336 25.2207 56.293L27.6133 56.2871L27.6367 61.0811Z" fill="#F4805D"></path>
<path d="M106.954 56.2646C107.765 56.2838 108.575 56.2913 109.386 56.2881L109.39 58.7012L106.963 58.7109C106.963 57.9526 106.988 57.0077 106.954 56.2646Z" fill="#F4805D"></path>
<path d="M27.6094 46.3125L27.6367 51.2676H25.1729L25.1709 53.7666L22.749 53.7627L22.7432 56.2559L20.2617 56.2578C20.2637 56.6626 20.3235 58.4859 20.1602 58.7041L17.8281 58.7021C17.8476 57.0793 17.8317 55.427 17.8311 53.8018L20.2939 53.8076C20.3103 52.9996 20.2925 52.1357 20.29 51.3232L22.7539 51.3301L22.7549 48.8213C23.5739 48.824 24.393 48.8217 25.2119 48.8145C25.2093 48.2861 25.1623 46.7202 25.2393 46.3096L27.6094 46.3125Z" fill="#F4805D"></path>
<path d="M104.475 46.2793C105.289 46.2873 106.133 46.2832 106.943 46.3047C106.943 49.3998 106.828 53.242 106.954 56.2646C106.342 56.2172 105.146 56.2532 104.49 56.2529C104.548 53.0938 104.529 49.4399 104.475 46.2793Z" fill="#F4805D"></path>
<path d="M20.2734 46.2842C20.2092 47.8535 20.2512 49.6736 20.2529 51.2617L17.7949 51.2695L17.791 53.7637L15.3672 53.7627C15.3963 52.1357 15.3747 50.4489 15.374 48.8174L17.833 48.8262L17.8291 46.3193C18.644 46.3203 19.4589 46.3084 20.2734 46.2842Z" fill="#F4805D"></path>
<path d="M22.7402 46.2715C22.0472 46.271 20.9324 46.2368 20.2734 46.2842C20.3344 44.6808 20.3018 42.8997 20.3018 41.2822C21.1164 41.2866 21.9315 41.2836 22.7461 41.2734L22.7402 46.2715Z" fill="#F4805D"></path>
<path d="M104.461 38.7891C104.461 41.1853 104.402 43.9099 104.475 46.2793L102.019 46.2695L102.025 38.7842L104.461 38.7891Z" fill="#F4805D"></path>
<path d="M32.5967 46.2686L30.1689 46.2666L30.168 38.7891L32.6055 38.7803L32.5967 46.2686Z" fill="#F4805D"></path>
<path d="M25.1768 41.2695C24.4141 41.2678 23.4961 41.2424 22.7461 41.2734L22.751 38.7891L25.1748 38.7871L25.1768 41.2695Z" fill="#F4805D"></path>
<path d="M35.0967 38.7686L32.6553 38.7637L32.6396 36.2988C33.46 36.3069 34.2805 36.2987 35.1006 36.2744L35.0967 38.7686Z" fill="#F4805D"></path>
<path d="M99.5283 28.8076L99.5254 31.3018L101.986 31.3086L101.988 38.7607L99.5381 38.7539L99.543 33.7666L97.0537 33.7539C97.0522 32.1523 97.09 30.3678 97.0439 28.7822L99.5283 28.8076Z" fill="#F4805D"></path>
<path d="M27.6445 38.7588L25.2158 38.7568L25.2197 33.8018L27.6426 33.7832L27.6445 38.7588Z" fill="#F4805D"></path>
<path d="M54.8799 18.876L54.8887 21.3438L59.8379 21.3525C59.8398 22.1567 59.8305 22.9843 59.8447 23.7861L52.3828 23.7793L52.3945 26.2812L44.9473 26.2773L44.9512 28.7695L42.4795 28.7705C42.4868 29.5891 42.5065 30.4487 42.4922 31.2637L40.0156 31.2686L40.0205 33.7578L37.5459 33.7607C37.5669 34.5945 37.5721 35.4288 37.5615 36.2627C36.7994 36.2591 35.8459 36.2315 35.1006 36.2744L35.0918 31.3125L37.5684 31.2998L37.5586 28.8057L40.0215 28.7939L40.0205 26.3408L42.5068 26.3359L42.5 21.3496L47.4697 21.3535L47.459 18.8682C49.8905 18.8693 52.4587 18.8325 54.8799 18.876Z" fill="#F4805D"></path>
<path d="M42.4531 18.8604C42.4597 19.6551 42.4805 20.5038 42.4629 21.2939C41.8755 21.2886 40.6439 21.2498 40.1191 21.3174C40.0913 21.3516 40.0254 21.4237 40.0127 21.459L40.0156 23.7783L37.5371 23.7861L37.5518 26.2764L35.0938 26.2783L35.0889 28.7695H32.6035L32.6084 31.2646L30.1289 31.2666L30.1338 33.7627C29.3193 33.7596 28.4951 33.7501 27.6816 33.7568C27.6837 32.1585 27.7226 30.3588 27.6602 28.7773C28.496 28.7915 29.332 28.798 30.168 28.7969L30.166 26.3438L32.6523 26.3408L32.6387 23.8486L35.0938 23.8467L35.0889 21.3574L37.5752 21.3535L37.5713 18.8662L42.4531 18.8604Z" fill="#F4805D"></path>
<path d="M67.3027 26.3379L67.3096 31.2666L64.8613 31.2656L64.8584 26.3311L67.3027 26.3379Z" fill="#F4805D"></path>
<path d="M62.3105 28.79L62.3252 31.2637L59.8594 31.2607L59.8496 28.7861L62.3105 28.79Z" fill="#F4805D"></path>
<path d="M59.8369 26.3359C59.8358 27.0888 59.809 28.051 59.8496 28.7861C57.4026 28.7365 54.8774 28.768 52.4248 28.7695L52.4258 26.335L59.8369 26.3359Z" fill="#F4805D"></path>
<path d="M94.5518 23.8428L94.5479 26.333L97.0469 26.335L97.0439 28.7822C95.4091 28.7623 93.7735 28.7571 92.1387 28.7666L92.1396 26.2871L87.1748 26.2803C87.1709 25.4715 87.1777 24.6405 87.1621 23.834L94.5518 23.8428Z" fill="#F4805D"></path>
<path d="M87.1445 28.7715H84.6885C84.6971 27.9642 84.6883 27.1434 84.6875 26.335L87.1484 26.333L87.1445 28.7715Z" fill="#F4805D"></path>
<path d="M47.4697 13.8691C53.2088 13.948 59.0746 13.8723 64.8262 13.874C64.8135 14.6991 64.8164 15.5247 64.835 16.3496L67.3047 16.3555C67.2903 17.1715 67.3141 18.0346 67.3252 18.8545L69.7812 18.8662L69.7822 21.3457L72.2559 21.3555C72.2405 22.1728 72.2573 23.0207 72.2637 23.8408L74.7002 23.8457L74.7012 28.7686L72.2793 28.7695L72.2822 26.2891L69.8232 26.2803L69.8311 23.791L67.3506 23.7793V21.293L62.3574 21.2832L62.3594 18.8232C60.7179 18.7932 59.0308 18.8054 57.3857 18.7988L57.3887 16.3291L47.4648 16.3262C47.4963 15.5098 47.4782 14.6864 47.4697 13.8691Z" fill="#F4805D"></path>
<path d="M64.8105 23.8447C64.802 24.6439 64.823 25.4782 64.832 26.2803L59.8584 26.2783V23.8438L64.8105 23.8447Z" fill="#F4805D"></path>
<path d="M94.5596 16.3623C94.544 17.1863 94.5498 18.0332 94.5459 18.8594L97.0479 18.8613L97.043 21.3018C94.5661 21.2813 92.088 21.2789 89.6104 21.2939L87.1475 21.291L87.1396 23.7861L82.1992 23.7773V21.3496H84.6807C84.6955 20.5295 84.6846 19.6837 84.6846 18.8613L87.1494 18.8711C87.1674 18.0558 87.1492 17.1906 87.1445 16.3711L94.5596 16.3623Z" fill="#F4805D"></path>
<path d="M99.5234 23.7822L97.0703 23.7744C97.0563 22.9739 97.0625 22.1539 97.0586 21.3516L99.5312 21.3467L99.5234 23.7822Z" fill="#F4805D"></path>
<path d="M47.4424 16.3604C47.4497 17.18 47.4515 17.9998 47.4482 18.8193C45.9129 18.7572 44.067 18.809 42.5088 18.8135L42.5078 16.3652L47.4424 16.3604Z" fill="#F4805D"></path>
</svg>