<svg width="125" height="160" viewBox="0 0 125 160" fill="none" xmlns="http://www.w3.org/2000/svg">
<path d="M72.2637 6.43262L77.1982 6.44727L77.1973 8.84961L79.6729 8.85547C79.6206 9.52002 79.6502 10.655 79.6494 11.3438L82.167 11.3525C82.1748 10.4991 82.1832 9.70759 82.1426 8.85547L92.1191 8.85742L92.1074 11.3555L97.0449 11.3594L97.0381 13.8564C97.8667 13.8518 98.7077 13.8641 99.5371 13.8691L99.5352 16.3516L101.982 16.3564L101.979 18.8574L104.465 18.8652L104.464 23.8359L106.937 23.8477L106.927 28.7969C107.747 28.7919 108.568 28.8009 109.388 28.8242L109.387 36.3018C110.195 36.2838 111.058 36.3012 111.871 36.3047L111.868 43.8438L114.336 43.8457L114.333 46.2959H109.402L109.405 41.2656L106.955 41.2578L106.958 33.7617L104.48 33.752L104.486 28.7715L102.018 28.7666L102.022 26.2832L99.5508 26.2764L99.5449 23.8291L102.017 23.8438C102.006 23.0035 102.016 22.1446 102.017 21.3027C101.217 21.2798 100.352 21.2923 99.5469 21.2891L99.5479 18.8242C98.7332 18.8088 97.9 18.8136 97.083 18.8105L97.0742 16.332L94.5957 16.3164L94.5967 13.8135C92.983 13.7747 91.2573 13.8047 89.6357 13.8047L89.6426 11.3018L84.7002 11.3096L84.7031 13.8105L82.1943 13.8076L82.1924 16.3164L79.7051 16.3115V13.8184L77.2334 13.8037V11.3018C75.5727 11.2893 73.9117 11.2878 72.251 11.2969L72.2627 13.8643L74.7051 13.8779L74.7031 16.3584L77.1973 16.3623L77.1934 18.8584L79.6572 18.8633V28.7715H77.2383L77.2275 21.3037C76.4375 21.2782 75.566 21.2912 74.7695 21.2871L74.7627 18.8232L72.2871 18.8018L72.2861 16.3252L69.8359 16.3086L69.834 13.8193L67.3496 13.8047L67.3506 8.81836L57.3633 8.82031L57.3662 11.2969L47.4482 11.2891L47.4541 13.8223C45.8492 13.7752 44.0749 13.8101 42.457 13.8086C42.4705 14.6469 42.4743 15.4858 42.4688 16.3242C40.8435 16.3006 39.1574 16.3256 37.5273 16.3271L37.5312 18.8135C35.9054 18.7913 34.2356 18.8116 32.6064 18.8135L32.6094 21.293L30.1191 21.2969V23.7812L27.6309 23.7832C27.6271 25.3523 27.5766 27.2376 27.6602 28.7773C26.8302 28.7709 25.9998 28.7703 25.1699 28.7734L25.168 31.2666L22.7295 31.2656L22.7305 33.7656C21.9044 33.7598 21.0779 33.7595 20.252 33.7637L20.2529 41.2578L17.7871 41.2676L17.7832 43.7773L15.3496 43.7764L15.3477 46.2959H10.4072V43.8369L12.8809 43.8398L12.8906 38.7988L15.3535 38.8057L15.3438 36.3008L17.8242 36.2998L17.8252 31.3027L20.2715 31.3037C20.2842 29.6495 20.2831 27.9949 20.2666 26.3408L22.749 26.3438L22.75 23.8457H25.2227L25.2129 21.3545L27.6777 21.3525L27.6699 18.8643L30.168 18.8623L30.166 16.3643L32.6416 16.3613L32.6348 13.8711L37.5684 13.8818L37.5664 11.3516L42.5049 11.3545L42.501 8.85254L47.4873 8.85938L47.4902 6.44141L54.9297 6.44922L54.9238 4H72.2637V6.43262Z" fill="#F4805D"></path>
<path d="M20.2734 46.2959H19.75C19.9245 46.2918 20.099 46.2894 20.2734 46.2842C20.2733 46.2881 20.2736 46.292 20.2734 46.2959Z" fill="#F4805D"></path>
<path d="M77.1992 31.3076L77.1963 33.793L79.6934 33.7949L79.6875 31.3008L87.1309 31.3203L87.1348 33.79C87.9572 33.7775 88.8178 33.7947 89.6426 33.7988C89.6324 34.6228 89.6424 35.4662 89.6416 36.292L92.1152 36.2979L92.1162 38.792L94.5576 38.7969L94.5547 46.2959H37.5615L37.5371 41.3037L40.0244 41.3047L40.0176 38.7939L42.5098 38.7949L42.5078 36.2949L44.9629 36.2969L44.9492 33.7969L57.3623 33.7949L57.3682 36.2891L64.8594 36.3008L64.8574 33.7969L72.2725 33.79L72.2754 31.2979L77.1992 31.3076Z" fill="#F4805D"></path>
<path d="M104.475 46.2793C105.085 46.2853 105.711 46.2877 106.327 46.2959H104.475C104.475 46.2904 104.475 46.2848 104.475 46.2793Z" fill="#F4805D"></path>
<path d="M22.7402 46.2715C22.0472 46.271 20.9324 46.2368 20.2734 46.2842C20.3344 44.6808 20.3018 42.8997 20.3018 41.2822C21.1164 41.2866 21.9315 41.2836 22.7461 41.2734L22.7402 46.2715Z" fill="#F4805D"></path>
<path d="M104.461 38.7891C104.461 41.1853 104.402 43.9099 104.475 46.2793L102.019 46.2695L102.025 38.7842L104.461 38.7891Z" fill="#F4805D"></path>
<path d="M32.5967 46.2686L30.1689 46.2666L30.168 38.7891L32.6055 38.7803L32.5967 46.2686Z" fill="#F4805D"></path>
<path d="M25.1768 41.2695C24.4141 41.2678 23.4961 41.2424 22.7461 41.2734L22.751 38.7891L25.1748 38.7871L25.1768 41.2695Z" fill="#F4805D"></path>
<path d="M35.0967 38.7686L32.6553 38.7637L32.6396 36.2988C33.46 36.3069 34.2805 36.2987 35.1006 36.2744L35.0967 38.7686Z" fill="#F4805D"></path>
<path d="M99.5283 28.8076L99.5254 31.3018L101.986 31.3086L101.988 38.7607L99.5381 38.7539L99.543 33.7666L97.0537 33.7539C97.0522 32.1523 97.09 30.3678 97.0439 28.7822L99.5283 28.8076Z" fill="#F4805D"></path>
<path d="M27.6445 38.7588L25.2158 38.7568L25.2197 33.8018L27.6426 33.7832L27.6445 38.7588Z" fill="#F4805D"></path>
<path d="M54.8799 18.876L54.8887 21.3438L59.8379 21.3525C59.8398 22.1567 59.8305 22.9843 59.8447 23.7861L52.3828 23.7793L52.3945 26.2812L44.9473 26.2773L44.9512 28.7695L42.4795 28.7705C42.4868 29.5891 42.5065 30.4487 42.4922 31.2637L40.0156 31.2686L40.0205 33.7578L37.5459 33.7607C37.5669 34.5945 37.5721 35.4288 37.5615 36.2627C36.7994 36.2591 35.8459 36.2315 35.1006 36.2744L35.0918 31.3125L37.5684 31.2998L37.5586 28.8057L40.0215 28.7939L40.0205 26.3408L42.5068 26.3359L42.5 21.3496L47.4697 21.3535L47.459 18.8682C49.8905 18.8693 52.4587 18.8325 54.8799 18.876Z" fill="#F4805D"></path>
<path d="M42.4531 18.8604C42.4597 19.6551 42.4805 20.5038 42.4629 21.2939C41.8755 21.2886 40.6439 21.2498 40.1191 21.3174C40.0913 21.3516 40.0254 21.4237 40.0127 21.459L40.0156 23.7783L37.5371 23.7861L37.5518 26.2764L35.0938 26.2783L35.0889 28.7695H32.6035L32.6084 31.2646L30.1289 31.2666L30.1338 33.7627C29.3193 33.7596 28.4951 33.7501 27.6816 33.7568C27.6837 32.1585 27.7226 30.3588 27.6602 28.7773C28.496 28.7915 29.332 28.798 30.168 28.7969L30.166 26.3438L32.6523 26.3408L32.6387 23.8486L35.0938 23.8467L35.0889 21.3574L37.5752 21.3535L37.5713 18.8662L42.4531 18.8604Z" fill="#F4805D"></path>
<path d="M67.3027 26.3379L67.3096 31.2666L64.8613 31.2656L64.8584 26.3311L67.3027 26.3379Z" fill="#F4805D"></path>
<path d="M62.3105 28.79L62.3252 31.2637L59.8594 31.2607L59.8496 28.7861L62.3105 28.79Z" fill="#F4805D"></path>
<path d="M59.8369 26.3359C59.8358 27.0888 59.809 28.051 59.8496 28.7861C57.4026 28.7365 54.8774 28.768 52.4248 28.7695L52.4258 26.335L59.8369 26.3359Z" fill="#F4805D"></path>
<path d="M94.5518 23.8428L94.5479 26.333L97.0469 26.335L97.0439 28.7822C95.4091 28.7623 93.7735 28.7571 92.1387 28.7666L92.1396 26.2871L87.1748 26.2803C87.1709 25.4715 87.1777 24.6405 87.1621 23.834L94.5518 23.8428Z" fill="#F4805D"></path>
<path d="M87.1445 28.7715H84.6885C84.6971 27.9642 84.6883 27.1434 84.6875 26.335L87.1484 26.333L87.1445 28.7715Z" fill="#F4805D"></path>
<path d="M47.4697 13.8691C53.2088 13.948 59.0746 13.8723 64.8262 13.874C64.8135 14.6991 64.8164 15.5247 64.835 16.3496L67.3047 16.3555C67.2903 17.1715 67.3141 18.0346 67.3252 18.8545L69.7812 18.8662L69.7822 21.3457L72.2559 21.3555C72.2405 22.1728 72.2573 23.0207 72.2637 23.8408L74.7002 23.8457L74.7012 28.7686L72.2793 28.7695L72.2822 26.2891L69.8232 26.2803L69.8311 23.791L67.3506 23.7793V21.293L62.3574 21.2832L62.3594 18.8232C60.7179 18.7932 59.0308 18.8054 57.3857 18.7988L57.3887 16.3291L47.4648 16.3262C47.4963 15.5098 47.4782 14.6864 47.4697 13.8691Z" fill="#F4805D"></path>
<path d="M64.8105 23.8447C64.802 24.6439 64.823 25.4782 64.832 26.2803L59.8584 26.2783V23.8438L64.8105 23.8447Z" fill="#F4805D"></path>
<path d="M94.5596 16.3623C94.544 17.1863 94.5498 18.0332 94.5459 18.8594L97.0479 18.8613L97.043 21.3018C94.5661 21.2813 92.088 21.2789 89.6104 21.2939L87.1475 21.291L87.1396 23.7861L82.1992 23.7773V21.3496H84.6807C84.6955 20.5295 84.6846 19.6837 84.6846 18.8613L87.1494 18.8711C87.1674 18.0558 87.1492 17.1906 87.1445 16.3711L94.5596 16.3623Z" fill="#F4805D"></path>
<path d="M99.5234 23.7822L97.0703 23.7744C97.0563 22.9739 97.0625 22.1539 97.0586 21.3516L99.5312 21.3467L99.5234 23.7822Z" fill="#F4805D"></path>
<path d="M47.4424 16.3604C47.4497 17.18 47.4515 17.9998 47.4482 18.8193C45.9129 18.7572 44.067 18.809 42.5088 18.8135L42.5078 16.3652L47.4424 16.3604Z" fill="#F4805D"></path>
</svg>