<svg width="24" height="24" viewBox="0 0 24 24" fill="none" xmlns="http://www.w3.org/2000/svg">
<path d="M16 7H12.7383V8.46094H14.9287V9.9209H12.7383V13.2773H14.9287V14.7383H12.7383V18.0791H14.9287V19.5391H12.7383V21H18V23H6V21H11.2773V19.5391H9.07129V18.0791H11.2773V14.7383H9.07129V13.2773H11.2773V9.9209H9.07129V8.46094H11.2773V7H8V5H16V7Z" fill="white"></path>
<path d="M6 21H4V19H6V21Z" fill="white"></path>
<path d="M20 21H18V19H20V21Z" fill="white"></path>
<path d="M4 19H2V13H4V19Z" fill="white"></path>
<path d="M22 19H20V13H22V19Z" fill="white"></path>
<path d="M9.07129 18.0791H7.61035V16.6182H9.07129V18.0791Z" fill="white"></path>
<path d="M16.3896 18.0791H14.9287V14.7383H16.3896V18.0791Z" fill="white"></path>
<path d="M9.07129 13.2773H7.61035V9.9209H9.07129V13.2773Z" fill="white"></path>
<path d="M6 13H4V9H6V13Z" fill="white"></path>
<path d="M20 13H18V9H20V13Z" fill="white"></path>
<path d="M16.3896 11.3818H14.9287V9.9209H16.3896V11.3818Z" fill="white"></path>
<path d="M8 9H6V7H8V9Z" fill="white"></path>
<path d="M18 9H16V7H18V9Z" fill="white"></path>
<path d="M18 5H16V3H8V5H6V3H7.86133V1H16.1387V3H18V5Z" fill="white"></path>
</svg>